<svg xmlns="http://www.w3.org/2000/svg" xmlns:xlink="http://www.w3.org/1999/xlink" id="Layer_1" x="0" y="0" version="1.1" viewBox="0 0 512 512" xml:space="preserve" style="enable-background:new 0 0 512 512"><g><g><path d="M256,135.841c-52.758,0-95.68,42.922-95.68,95.681s42.921,95.681,95.68,95.681s95.68-42.922,95.68-95.681 C351.68,178.763,308.758,135.841,256,135.841z M256,306.804c-41.511,0-75.281-33.771-75.281-75.282S214.489,156.24,256,156.24 c41.511,0,75.281,33.772,75.281,75.282C331.281,273.033,297.511,306.804,256,306.804z"/></g></g><g><g><path d="M256,168.293c-34.865,0-63.229,28.365-63.229,63.229s28.365,63.229,63.229,63.229s63.229-28.365,63.229-63.229 S290.865,168.293,256,168.293z M256,274.352c-23.617,0-42.831-19.214-42.831-42.831s19.213-42.831,42.831-42.831 c23.617,0,42.831,19.214,42.831,42.831S279.617,274.352,256,274.352z"/></g></g><g><g><path d="M444.24,122.623h-75.028c-5.633,0-10.199,4.567-10.199,10.199v40.564c0,5.632,4.566,10.199,10.199,10.199h75.028 c5.633,0,10.199-4.567,10.199-10.199v-40.564C454.439,127.189,449.873,122.623,444.24,122.623z M434.04,163.187h-54.63v-20.166 h54.63V163.187z"/></g></g><g><g><path d="M85.948,286.798c-14.649,0-26.568,11.919-26.568,26.568c0,14.649,11.919,26.568,26.568,26.568 c14.65,0,26.568-11.919,26.568-26.568C112.516,298.716,100.598,286.798,85.948,286.798z M85.948,319.535 c-3.401,0-6.169-2.768-6.169-6.169c0-3.401,2.767-6.169,6.169-6.169c3.402,0,6.169,2.768,6.169,6.169 C92.117,316.767,89.349,319.535,85.948,319.535z"/></g></g><g><g><path d="M501.801,351.363h-16.444v-249.88c0-5.632-4.566-10.199-10.199-10.199H147.888V64.765c0-5.632-4.566-10.199-10.199-10.199 H65.275c-5.633,0-10.199,4.567-10.199,10.199v26.518H36.843c-5.633,0-10.199,4.567-10.199,10.199v249.88H10.199 C4.566,351.363,0,355.93,0,361.562v85.673c0,5.632,4.566,10.199,10.199,10.199h491.602c5.633,0,10.199-4.567,10.199-10.199 v-85.673C512,355.93,507.434,351.363,501.801,351.363z M75.474,74.964h52.016v16.319H75.474V74.964z M47.042,111.681h417.916 v239.681H47.042V111.681z M491.602,437.036H20.398v-65.275h471.203V437.036z"/></g></g><g><g><path d="M451.825,394.199H106.072c-5.633,0-10.199,4.567-10.199,10.199c0,5.632,4.566,10.199,10.199,10.199h345.753 c5.633,0,10.199-4.567,10.199-10.199C462.024,398.766,457.458,394.199,451.825,394.199z"/></g></g><g><g><path d="M65.275,394.199h-5.1c-5.633,0-10.199,4.567-10.199,10.199c0,5.632,4.566,10.199,10.199,10.199h5.1 c5.633,0,10.199-4.567,10.199-10.199C75.474,398.766,70.908,394.199,65.275,394.199z"/></g></g></svg>